<?xml version="1.0" standalone="no"?>
<!DOCTYPE svg PUBLIC "-//W3C//DTD SVG 20010904//EN"
 "http://www.w3.org/TR/2001/REC-SVG-20010904/DTD/svg10.dtd">
<svg version="1.0" xmlns="http://www.w3.org/2000/svg"
 width="1080.000000pt" height="1080.000000pt" viewBox="0 0 1080.000000 1080.000000"
 preserveAspectRatio="xMidYMid meet">

<g transform="translate(0.000000,1080.000000) scale(0.100000,-0.100000)"
fill="#000000" stroke="none">
<path d="M5398 10585 c-8 -13 -36 -144 -99 -454 -27 -134 -51 -246 -54 -249
-2 -3 -87 49 -187 115 -101 66 -188 123 -195 127 -6 3 16 -42 49 -102 87 -155
190 -363 232 -468 l36 -91 0 -1562 c0 -858 -4 -1561 -8 -1561 -16 0 -293 245
-892 790 -700 636 -1185 1084 -1188 1096 -3 12 260 485 736 1324 126 223 228
407 226 409 -13 15 -539 -502 -1193 -1174 -263 -269 -494 -508 -514 -531 l-37
-41 1290 -1223 c710 -672 1290 -1226 1290 -1230 0 -5 -584 -572 -1297 -1260
-714 -689 -1299 -1255 -1301 -1259 -1 -4 698 -690 1554 -1524 l1556 -1517 626
613 c345 337 1043 1020 1552 1517 509 497 926 906 928 910 2 6 -2315 2231
-2562 2461 l-59 55 1254 1189 c690 655 1276 1210 1302 1235 l48 45 -429 439
c-411 419 -1110 1109 -1256 1239 l-70 62 31 -55 c202 -361 403 -715 655 -1157
l305 -531 -1036 -933 -1036 -933 -7 40 c-13 72 -27 1168 -28 2109 0 875 1 935
19 1022 22 104 34 129 204 408 63 105 113 192 111 194 -1 2 -92 -54 -201 -123
l-198 -127 -7 38 c-56 312 -139 685 -150 668z m-214 -7580 c8 -951 13 -1731
11 -1734 -9 -8 -1636 1542 -1925 1833 -82 83 -103 109 -95 121 6 8 455 421
1000 917 l990 902 2 -155 c2 -85 9 -932 17 -1884z m1455 1126 c551 -497 1001
-907 999 -911 -5 -13 -2021 -1951 -2025 -1947 -7 7 10 3768 17 3765 4 -2 458
-410 1009 -907z"/>
</g>
</svg>
